<?xml version="1.0" encoding="UTF-8"?>
<svg xmlns="http://www.w3.org/2000/svg" width="200mm" height="200mm" viewBox="0 0 1054 1054" version="1.1">
  <title>CH Promotion Logo - Vector Trace</title>
  <rect width="100%" height="100%" fill="#FFFFFF"/>
  <g transform="translate(0.000,38.500)" fill-rule="evenodd" shape-rendering="geometricPrecision">
    <path d="M 747.0 396.0 L 747.0 834.0 L 838.0 853.0 L 838.0 459.0 Z M 665.0 281.0 L 617.0 313.0 L 614.0 314.0 L 594.0 328.0 L 594.0 479.0 L 607.0 472.0 L 610.0 469.0 L 613.0 468.0 L 621.0 462.0 L 624.0 461.0 L 665.0 434.0 Z M 594.0 70.0 L 594.0 305.0 L 678.0 249.0 L 685.0 249.0 L 685.0 826.0 L 689.0 827.0 L 685.0 826.0 L 685.0 251.0 L 707.0 265.0 L 694.0 255.0 L 694.0 153.0 Z" fill="#A7A9AC"/>
    <path d="M 467.0 482.0 L 467.0 610.0 L 472.0 610.0 L 472.0 486.0 Z M 61.0 919.0 L 192.0 899.0 L 347.0 883.0 L 476.0 876.0 L 596.0 876.0 L 788.0 889.0 L 907.0 904.0 L 995.0 920.0 L 920.0 894.0 L 843.0 874.0 L 665.0 844.0 L 665.0 456.0 L 594.0 501.0 L 593.0 627.0 L 430.0 627.0 L 429.0 465.0 L 406.0 451.0 L 356.0 483.0 L 355.0 853.0 L 183.0 884.0 Z M 428.0 693.0 L 430.0 691.0 L 592.0 691.0 L 594.0 693.0 L 594.0 840.0 L 593.0 841.0 L 514.0 841.0 L 513.0 842.0 L 490.0 842.0 L 489.0 843.0 L 458.0 844.0 L 457.0 845.0 L 444.0 845.0 L 443.0 846.0 L 433.0 846.0 L 432.0 847.0 L 430.0 847.0 L 428.0 845.0 Z M 431.0 368.0 L 378.0 355.0 L 322.0 353.0 L 274.0 360.0 L 235.0 372.0 L 193.0 393.0 L 157.0 420.0 L 122.0 459.0 L 96.0 505.0 L 84.0 539.0 L 76.0 585.0 L 76.0 624.0 L 84.0 672.0 L 98.0 711.0 L 122.0 753.0 L 152.0 788.0 L 196.0 822.0 L 240.0 844.0 L 264.0 850.0 L 335.0 838.0 L 335.0 802.0 L 295.0 795.0 L 265.0 784.0 L 242.0 772.0 L 209.0 747.0 L 187.0 723.0 L 174.0 704.0 L 156.0 664.0 L 148.0 624.0 L 149.0 578.0 L 162.0 531.0 L 182.0 495.0 L 212.0 462.0 L 235.0 445.0 L 257.0 433.0 L 300.0 419.0 L 347.0 415.0 L 392.0 422.0 L 434.0 439.0 L 473.0 466.0 L 473.0 389.0 Z M 686.0 250.0 L 686.0 826.0 L 729.0 832.0 L 729.0 365.0 L 733.0 365.0 L 776.0 396.0 L 776.0 317.0 Z M 472.0 203.0 L 468.0 206.0 L 468.0 365.0 L 473.0 368.0 L 473.0 203.0 Z M 492.0 190.0 L 487.0 194.0 L 487.0 203.0 L 488.0 204.0 L 488.0 222.0 L 487.0 223.0 L 487.0 230.0 L 488.0 231.0 L 488.0 267.0 L 487.0 268.0 L 487.0 270.0 L 488.0 271.0 L 488.0 307.0 L 487.0 308.0 L 487.0 310.0 L 488.0 311.0 L 488.0 346.0 L 487.0 347.0 L 487.0 352.0 L 488.0 353.0 L 488.0 373.0 L 487.0 374.0 L 488.0 376.0 L 487.0 377.0 L 492.0 380.0 Z M 510.0 178.0 L 505.0 181.0 L 504.0 610.0 L 509.0 610.0 L 509.0 550.0 L 510.0 549.0 L 510.0 536.0 L 509.0 535.0 L 509.0 525.0 L 510.0 524.0 L 509.0 523.0 L 509.0 518.0 L 510.0 517.0 L 510.0 506.0 L 509.0 505.0 L 510.0 500.0 L 510.0 484.0 L 509.0 483.0 L 509.0 454.0 L 510.0 453.0 Z M 532.0 163.0 L 526.0 167.0 L 527.0 168.0 L 527.0 274.0 L 526.0 275.0 L 526.0 284.0 L 527.0 285.0 L 526.0 287.0 L 527.0 291.0 L 527.0 408.0 L 526.0 409.0 L 526.0 435.0 L 527.0 436.0 L 527.0 511.0 L 526.0 512.0 L 526.0 518.0 L 527.0 519.0 L 527.0 562.0 L 526.0 563.0 L 527.0 588.0 L 526.0 589.0 L 526.0 598.0 L 527.0 599.0 L 527.0 610.0 L 532.0 610.0 Z M 576.0 58.0 L 409.0 173.0 L 409.0 343.0 L 438.0 352.0 L 438.0 194.0 L 544.0 122.0 L 548.0 122.0 L 548.0 610.0 L 576.0 610.0 Z" fill="#003262"/>
  </g>
</svg>
